<mxfile host="app.diagrams.net" modified="2024-07-07T22:50:28.568Z" agent="Mozilla/5.0 (X11; Linux x86_64) AppleWebKit/537.36 (KHTML, like Gecko) Chrome/126.0.0.0 Safari/537.36" etag="pROn-dasrOQZJA7qaWif" version="24.6.4" type="device">
  <diagram name="PÃ¡gina-1" id="1TFQy5Y9a4DBYZvIm2cX">
    <mxGraphModel dx="492" dy="298" grid="1" gridSize="10" guides="1" tooltips="1" connect="1" arrows="1" fold="1" page="1" pageScale="1" pageWidth="827" pageHeight="1169" math="0" shadow="0">
      <root>
        <mxCell id="0" />
        <mxCell id="1" parent="0" />
        <mxCell id="QidSN4frGj2rm1rmIopq-1" value="Solicitudes" style="text;html=1;align=center;verticalAlign=middle;whiteSpace=wrap;rounded=0;" vertex="1" parent="1">
          <mxGeometry x="390" y="370" width="60" height="30" as="geometry" />
        </mxCell>
        <mxCell id="QidSN4frGj2rm1rmIopq-32" style="edgeStyle=orthogonalEdgeStyle;rounded=0;orthogonalLoop=1;jettySize=auto;html=1;entryX=0.5;entryY=1;entryDx=0;entryDy=0;startArrow=classic;startFill=1;" edge="1" parent="1" source="QidSN4frGj2rm1rmIopq-2" target="QidSN4frGj2rm1rmIopq-1">
          <mxGeometry relative="1" as="geometry" />
        </mxCell>
        <mxCell id="QidSN4frGj2rm1rmIopq-2" value="RAM" style="rounded=1;whiteSpace=wrap;html=1;align=right;verticalAlign=top;labelPosition=left;verticalLabelPosition=bottom;" vertex="1" parent="1">
          <mxGeometry x="320" y="440" width="200" height="90" as="geometry" />
        </mxCell>
        <mxCell id="QidSN4frGj2rm1rmIopq-3" value="" style="rounded=0;whiteSpace=wrap;html=1;" vertex="1" parent="1">
          <mxGeometry x="330" y="460" width="20" height="20" as="geometry" />
        </mxCell>
        <mxCell id="QidSN4frGj2rm1rmIopq-5" value="" style="rounded=0;whiteSpace=wrap;html=1;" vertex="1" parent="1">
          <mxGeometry x="370" y="460" width="20" height="20" as="geometry" />
        </mxCell>
        <mxCell id="QidSN4frGj2rm1rmIopq-6" value="" style="rounded=0;whiteSpace=wrap;html=1;" vertex="1" parent="1">
          <mxGeometry x="390" y="460" width="20" height="20" as="geometry" />
        </mxCell>
        <mxCell id="QidSN4frGj2rm1rmIopq-7" value="" style="rounded=0;whiteSpace=wrap;html=1;" vertex="1" parent="1">
          <mxGeometry x="410" y="460" width="20" height="20" as="geometry" />
        </mxCell>
        <mxCell id="QidSN4frGj2rm1rmIopq-8" value="" style="rounded=0;whiteSpace=wrap;html=1;" vertex="1" parent="1">
          <mxGeometry x="430" y="460" width="20" height="20" as="geometry" />
        </mxCell>
        <mxCell id="QidSN4frGj2rm1rmIopq-9" value="" style="rounded=0;whiteSpace=wrap;html=1;" vertex="1" parent="1">
          <mxGeometry x="450" y="460" width="20" height="20" as="geometry" />
        </mxCell>
        <mxCell id="QidSN4frGj2rm1rmIopq-10" value="" style="rounded=0;whiteSpace=wrap;html=1;" vertex="1" parent="1">
          <mxGeometry x="470" y="460" width="20" height="20" as="geometry" />
        </mxCell>
        <mxCell id="QidSN4frGj2rm1rmIopq-11" value="" style="rounded=0;whiteSpace=wrap;html=1;" vertex="1" parent="1">
          <mxGeometry x="490" y="460" width="20" height="20" as="geometry" />
        </mxCell>
        <mxCell id="QidSN4frGj2rm1rmIopq-12" value="" style="rounded=0;whiteSpace=wrap;html=1;" vertex="1" parent="1">
          <mxGeometry x="330" y="480" width="20" height="20" as="geometry" />
        </mxCell>
        <mxCell id="QidSN4frGj2rm1rmIopq-13" value="" style="rounded=0;whiteSpace=wrap;html=1;" vertex="1" parent="1">
          <mxGeometry x="350" y="480" width="20" height="20" as="geometry" />
        </mxCell>
        <mxCell id="QidSN4frGj2rm1rmIopq-14" value="" style="rounded=0;whiteSpace=wrap;html=1;" vertex="1" parent="1">
          <mxGeometry x="370" y="480" width="20" height="20" as="geometry" />
        </mxCell>
        <mxCell id="QidSN4frGj2rm1rmIopq-16" value="" style="rounded=0;whiteSpace=wrap;html=1;" vertex="1" parent="1">
          <mxGeometry x="410" y="480" width="20" height="20" as="geometry" />
        </mxCell>
        <mxCell id="QidSN4frGj2rm1rmIopq-17" value="" style="rounded=0;whiteSpace=wrap;html=1;" vertex="1" parent="1">
          <mxGeometry x="430" y="480" width="20" height="20" as="geometry" />
        </mxCell>
        <mxCell id="QidSN4frGj2rm1rmIopq-18" value="" style="rounded=0;whiteSpace=wrap;html=1;" vertex="1" parent="1">
          <mxGeometry x="450" y="480" width="20" height="20" as="geometry" />
        </mxCell>
        <mxCell id="QidSN4frGj2rm1rmIopq-19" value="" style="rounded=0;whiteSpace=wrap;html=1;" vertex="1" parent="1">
          <mxGeometry x="470" y="480" width="20" height="20" as="geometry" />
        </mxCell>
        <mxCell id="QidSN4frGj2rm1rmIopq-20" value="" style="rounded=0;whiteSpace=wrap;html=1;" vertex="1" parent="1">
          <mxGeometry x="490" y="480" width="20" height="20" as="geometry" />
        </mxCell>
        <mxCell id="QidSN4frGj2rm1rmIopq-21" value="" style="rounded=0;whiteSpace=wrap;html=1;" vertex="1" parent="1">
          <mxGeometry x="330" y="500" width="20" height="20" as="geometry" />
        </mxCell>
        <mxCell id="QidSN4frGj2rm1rmIopq-22" value="" style="rounded=0;whiteSpace=wrap;html=1;" vertex="1" parent="1">
          <mxGeometry x="350" y="500" width="20" height="20" as="geometry" />
        </mxCell>
        <mxCell id="QidSN4frGj2rm1rmIopq-24" value="" style="rounded=0;whiteSpace=wrap;html=1;" vertex="1" parent="1">
          <mxGeometry x="390" y="500" width="20" height="20" as="geometry" />
        </mxCell>
        <mxCell id="QidSN4frGj2rm1rmIopq-23" value="5" style="rounded=0;whiteSpace=wrap;html=1;fillColor=#f8cecc;strokeColor=#b85450;" vertex="1" parent="1">
          <mxGeometry x="370" y="500" width="20" height="20" as="geometry" />
        </mxCell>
        <mxCell id="QidSN4frGj2rm1rmIopq-26" value="" style="rounded=0;whiteSpace=wrap;html=1;" vertex="1" parent="1">
          <mxGeometry x="430" y="500" width="20" height="20" as="geometry" />
        </mxCell>
        <mxCell id="QidSN4frGj2rm1rmIopq-25" value="9" style="rounded=0;whiteSpace=wrap;html=1;fillColor=#f8cecc;strokeColor=#b85450;" vertex="1" parent="1">
          <mxGeometry x="410" y="500" width="20" height="20" as="geometry" />
        </mxCell>
        <mxCell id="QidSN4frGj2rm1rmIopq-27" value="" style="rounded=0;whiteSpace=wrap;html=1;" vertex="1" parent="1">
          <mxGeometry x="450" y="500" width="20" height="20" as="geometry" />
        </mxCell>
        <mxCell id="QidSN4frGj2rm1rmIopq-28" value="" style="rounded=0;whiteSpace=wrap;html=1;" vertex="1" parent="1">
          <mxGeometry x="470" y="500" width="20" height="20" as="geometry" />
        </mxCell>
        <mxCell id="QidSN4frGj2rm1rmIopq-29" value="" style="rounded=0;whiteSpace=wrap;html=1;" vertex="1" parent="1">
          <mxGeometry x="490" y="500" width="20" height="20" as="geometry" />
        </mxCell>
        <mxCell id="QidSN4frGj2rm1rmIopq-15" value="8" style="rounded=0;whiteSpace=wrap;html=1;fillColor=#f8cecc;strokeColor=#b85450;" vertex="1" parent="1">
          <mxGeometry x="390" y="480" width="20" height="20" as="geometry" />
        </mxCell>
        <mxCell id="QidSN4frGj2rm1rmIopq-4" value="1" style="rounded=0;whiteSpace=wrap;html=1;fillColor=#f8cecc;strokeColor=#b85450;" vertex="1" parent="1">
          <mxGeometry x="350" y="460" width="20" height="20" as="geometry" />
        </mxCell>
        <mxCell id="QidSN4frGj2rm1rmIopq-34" style="edgeStyle=orthogonalEdgeStyle;rounded=0;orthogonalLoop=1;jettySize=auto;html=1;entryX=0.5;entryY=1;entryDx=0;entryDy=0;startArrow=classic;startFill=1;" edge="1" parent="1" source="QidSN4frGj2rm1rmIopq-33" target="QidSN4frGj2rm1rmIopq-2">
          <mxGeometry relative="1" as="geometry" />
        </mxCell>
        <mxCell id="QidSN4frGj2rm1rmIopq-33" value="Disco" style="shape=cylinder3;whiteSpace=wrap;html=1;boundedLbl=1;backgroundOutline=1;size=15;verticalAlign=top;labelPosition=center;verticalLabelPosition=bottom;align=center;" vertex="1" parent="1">
          <mxGeometry x="355" y="585" width="130" height="95" as="geometry" />
        </mxCell>
        <mxCell id="QidSN4frGj2rm1rmIopq-35" value="1" style="rounded=0;whiteSpace=wrap;html=1;fillColor=#f8cecc;strokeColor=#b85450;" vertex="1" parent="1">
          <mxGeometry x="370" y="620" width="20" height="20" as="geometry" />
        </mxCell>
        <mxCell id="QidSN4frGj2rm1rmIopq-36" value="2" style="rounded=0;whiteSpace=wrap;html=1;fillColor=#f8cecc;strokeColor=#b85450;" vertex="1" parent="1">
          <mxGeometry x="390" y="620" width="20" height="20" as="geometry" />
        </mxCell>
        <mxCell id="QidSN4frGj2rm1rmIopq-37" value="3" style="rounded=0;whiteSpace=wrap;html=1;fillColor=#f8cecc;strokeColor=#b85450;" vertex="1" parent="1">
          <mxGeometry x="410" y="620" width="20" height="20" as="geometry" />
        </mxCell>
        <mxCell id="QidSN4frGj2rm1rmIopq-38" value="4" style="rounded=0;whiteSpace=wrap;html=1;fillColor=#f8cecc;strokeColor=#b85450;" vertex="1" parent="1">
          <mxGeometry x="430" y="620" width="20" height="20" as="geometry" />
        </mxCell>
        <mxCell id="QidSN4frGj2rm1rmIopq-39" value="5" style="rounded=0;whiteSpace=wrap;html=1;fillColor=#f8cecc;strokeColor=#b85450;" vertex="1" parent="1">
          <mxGeometry x="450" y="620" width="20" height="20" as="geometry" />
        </mxCell>
        <mxCell id="QidSN4frGj2rm1rmIopq-40" value="6" style="rounded=0;whiteSpace=wrap;html=1;fillColor=#f8cecc;strokeColor=#b85450;" vertex="1" parent="1">
          <mxGeometry x="370" y="640" width="20" height="20" as="geometry" />
        </mxCell>
        <mxCell id="QidSN4frGj2rm1rmIopq-41" value="7" style="rounded=0;whiteSpace=wrap;html=1;fillColor=#f8cecc;strokeColor=#b85450;" vertex="1" parent="1">
          <mxGeometry x="390" y="640" width="20" height="20" as="geometry" />
        </mxCell>
        <mxCell id="QidSN4frGj2rm1rmIopq-42" value="8" style="rounded=0;whiteSpace=wrap;html=1;fillColor=#f8cecc;strokeColor=#b85450;" vertex="1" parent="1">
          <mxGeometry x="410" y="640" width="20" height="20" as="geometry" />
        </mxCell>
        <mxCell id="QidSN4frGj2rm1rmIopq-43" value="9" style="rounded=0;whiteSpace=wrap;html=1;fillColor=#f8cecc;strokeColor=#b85450;" vertex="1" parent="1">
          <mxGeometry x="430" y="640" width="20" height="20" as="geometry" />
        </mxCell>
        <mxCell id="QidSN4frGj2rm1rmIopq-44" value="10" style="rounded=0;whiteSpace=wrap;html=1;fillColor=#f8cecc;strokeColor=#b85450;" vertex="1" parent="1">
          <mxGeometry x="450" y="640" width="20" height="20" as="geometry" />
        </mxCell>
        <mxCell id="QidSN4frGj2rm1rmIopq-45" value="PÃ¡ginas" style="text;html=1;align=center;verticalAlign=middle;whiteSpace=wrap;rounded=0;" vertex="1" parent="1">
          <mxGeometry x="510" y="560" width="60" height="30" as="geometry" />
        </mxCell>
        <mxCell id="QidSN4frGj2rm1rmIopq-46" value="" style="endArrow=classic;html=1;rounded=0;exitX=0;exitY=0.5;exitDx=0;exitDy=0;entryX=0;entryY=0.5;entryDx=0;entryDy=0;" edge="1" parent="1" source="QidSN4frGj2rm1rmIopq-45" target="QidSN4frGj2rm1rmIopq-26">
          <mxGeometry width="50" height="50" relative="1" as="geometry">
            <mxPoint x="580" y="530" as="sourcePoint" />
            <mxPoint x="630" y="480" as="targetPoint" />
          </mxGeometry>
        </mxCell>
        <mxCell id="QidSN4frGj2rm1rmIopq-47" value="" style="endArrow=classic;html=1;rounded=0;exitX=0;exitY=0.5;exitDx=0;exitDy=0;entryX=0;entryY=0.5;entryDx=0;entryDy=0;" edge="1" parent="1" source="QidSN4frGj2rm1rmIopq-45" target="QidSN4frGj2rm1rmIopq-44">
          <mxGeometry width="50" height="50" relative="1" as="geometry">
            <mxPoint x="550" y="575" as="sourcePoint" />
            <mxPoint x="540" y="620" as="targetPoint" />
          </mxGeometry>
        </mxCell>
        <mxCell id="QidSN4frGj2rm1rmIopq-48" value="Frame" style="text;html=1;align=center;verticalAlign=middle;whiteSpace=wrap;rounded=0;" vertex="1" parent="1">
          <mxGeometry x="570" y="475" width="60" height="30" as="geometry" />
        </mxCell>
        <mxCell id="QidSN4frGj2rm1rmIopq-49" value="" style="endArrow=classic;html=1;rounded=0;entryX=0;entryY=0.5;entryDx=0;entryDy=0;exitX=0;exitY=0.5;exitDx=0;exitDy=0;" edge="1" parent="1" source="QidSN4frGj2rm1rmIopq-48" target="QidSN4frGj2rm1rmIopq-20">
          <mxGeometry width="50" height="50" relative="1" as="geometry">
            <mxPoint x="570" y="490" as="sourcePoint" />
            <mxPoint x="620" y="440" as="targetPoint" />
          </mxGeometry>
        </mxCell>
      </root>
    </mxGraphModel>
  </diagram>
</mxfile>
